<svg height="48" viewBox="0 0 1024 1024" width="48" xmlns="http://www.w3.org/2000/svg"><g fill="#ff6a00"><path d="m993.285829 307.19998a30.719957 30.719957 0 0 0 30.719957-31.334357v-3.891194a28.67196 28.67196 0 0 0 -28.82556-28.77436h-41.574342v-60.159916a99.83986 99.83986 0 0 0 -99.174261-99.83986h-85.145481v-54.425524a28.67196 28.67196 0 0 0 -28.77436-28.774359h-3.891194a30.719957 30.719957 0 0 0 -30.719957 31.334356v58.265518h-165.734168v-60.159916a29.798358 29.798358 0 0 0 -29.439959-29.439958h-3.839994a30.105558 30.105558 0 0 0 -30.105558 30.105557v59.494317h-171.51976v-61.439914a28.006361 28.006361 0 0 0 -28.159961-28.15996h-7.679989a28.41596 28.41596 0 0 0 -28.159961 28.15996v61.439914h-76.134293c-56.98552 0-101.734258 44.799937-101.734258 95.999866v57.599919h-31.385556a32.102355 32.102355 0 0 0 -31.999955 31.999955v.665599a30.719957 30.719957 0 0 0 30.719957 31.334357h32.665554v172.799758h-32.665554a30.719957 30.719957 0 0 0 -30.719957 31.385556v.614399a32.051155 32.051155 0 0 0 31.999955 31.999955h31.999956v172.799758h-31.334357a33.228753 33.228753 0 0 0 -32.665554 32.665554 30.719957 30.719957 0 0 0 30.719957 31.334356h32.665554v60.159916a99.78866 99.78866 0 0 0 99.174262 99.83986h85.14548v50.53433a32.358355 32.358355 0 0 0 32.614355 32.665554 30.719957 30.719957 0 0 0 30.719957-31.334356v-51.865528h171.51976v50.53433a32.767954 32.767954 0 0 0 32.614354 32.665554 30.719957 30.719957 0 0 0 30.719957-31.334356v-51.865528h171.46856v52.479927a30.719957 30.719957 0 0 0 30.105558 30.719957h5.785592a28.67196 28.67196 0 0 0 28.774359-28.77436v-54.425524h85.094281a92.159871 92.159871 0 0 0 91.545472-92.15987v-67.839906h33.894353a30.719957 30.719957 0 0 0 30.719957-31.334356v-3.891194a28.67196 28.67196 0 0 0 -28.77436-28.77436h-40.959943v-172.799758h39.731145a30.207958 30.207958 0 0 0 30.054358-30.719957v-3.839995a29.798358 29.798358 0 0 0 -29.439959-29.439958h-40.294344v-172.799758zm-96.665465 531.864855c0 19.148773-25.599964 37.734347-44.799937 37.734347h-686.07904a41.267142 41.267142 0 0 1 -38.399946-38.399946v-652.799086a41.267142 41.267142 0 0 1 38.399946-38.399946h692.479031a41.318342 41.318342 0 0 1 38.399946 38.399946z"/><path d="m301.062798 528.998069 33.996752-101.990257 33.996753 101.990257zm326.399543-56.678321c-5.631992 11.366384-16.998376 16.998376-33.996753 16.998377h-50.431929v-73.676697h39.679944c16.998376 0 28.31356 0 33.996753 5.683192a43.263939 43.263939 0 0 1 11.315184 28.36476c5.119993 11.315184-.563199 16.998376-.563199 22.630368z"/><path d="m818.438073 188.979345h-613.119141a36.556749 36.556749 0 0 0 -33.996753 33.996752v578.047191a36.556749 36.556749 0 0 0 33.996753 33.996753h607.435949c17.049576 0 39.679944-16.435177 39.679945-33.433554v-578.55919a36.556749 36.556749 0 0 0 -33.996753-34.047952zm-421.580209 436.376989-11.366384-51.199928h-95.743866l-16.998377 51.199928h-56.319921l90.111874-255.026843h62.105513l84.428682 255.026843zm269.721222-124.671825a79.871888 79.871888 0 0 1 -67.532705 33.996752h-61.439914v90.675073h-50.687929v-255.026843h117.759835c22.630368 0 45.311937 5.683192 56.319921 16.998376 16.998376 16.998376 22.681568 39.679944 22.681568 62.361513a91.545472 91.545472 0 0 1 -17.100776 50.995129zm101.427058 124.671825h-50.431929v-255.026843h50.431929z"/></g></svg>