<?xml version="1.0" standalone="no"?><!DOCTYPE svg PUBLIC "-//W3C//DTD SVG 1.1//EN" "http://www.w3.org/Graphics/SVG/1.1/DTD/svg11.dtd"><svg t="1592906167377" class="icon" viewBox="0 0 1024 1024" version="1.1" xmlns="http://www.w3.org/2000/svg" p-id="4536" xmlns:xlink="http://www.w3.org/1999/xlink" width="48" height="48"><defs><style type="text/css"></style></defs><path d="M258.368 352h512v64h-512zM258.368 704h512v64h-512z" p-id="4537" fill="#ffffff"></path><path d="M258.368 352h64v96h-64zM258.368 672h64v96h-64zM706.368 672h64v96h-64zM706.368 352h64v96h-64zM354.368 224h64v128h-64zM610.368 224h64v128h-64zM290.368 480h64v160h-64zM386.368 480h64v160h-64z" p-id="4538" fill="#ffffff"></path><path d="M322.368 480h96v32h-96zM322.368 544h96v32h-96zM514.368 480h128v32h-128zM482.368 544h128v32h-128z" p-id="4539" fill="#ffffff"></path><path d="M482.368 480h64v160h-64zM578.368 480h64v96h-64zM674.368 480h64v160h-64z" p-id="4540" fill="#ffffff"></path><path d="M1015.04 416h-65.344C905.76 214.72 726.464 64 512 64 264.576 64 64 264.576 64 512s200.576 448 448 448c225.696 0 412.384-166.88 443.456-384h64.576C988.544 828.576 773.12 1024 512 1024 229.216 1024 0 794.784 0 512S229.216 0 512 0c249.952 0 458.08 179.136 503.04 416z" p-id="4541" fill="#ffffff"></path></svg>