<?xml version="1.0" standalone="no"?><!DOCTYPE svg PUBLIC "-//W3C//DTD SVG 1.1//EN" "http://www.w3.org/Graphics/SVG/1.1/DTD/svg11.dtd"><svg t="1592906828039" class="icon" viewBox="0 0 1084 1024" version="1.1" xmlns="http://www.w3.org/2000/svg" p-id="6345" xmlns:xlink="http://www.w3.org/1999/xlink" width="50.8125" height="48"><defs><style type="text/css"></style></defs><path d="M578.51345 8.385225c14.397432 24.686103 7.613784 51.778765 7.957579 77.814889 0.251557 19.118313 1.609963 33.725375 26.363148 30.505449 23.939818-3.127689 29.583074 12.141806 35.025085 31.780003 16.862688 60.876734 66.13427 80.766488 121.812165 49.388976 19.864598-11.202661 35.326953-13.625991 51.007324 6.079288 9.48369 11.915405 20.84567 22.732345 32.844927 32.165724 37.414874 29.41537 54.571045 59.468016 17.265178 103.247276-16.284107 19.126698 16.133173 81.504388 43.653482 89.956695 27.604161 8.485848 59.9879 10.037114 52.432813 53.866686-2.280781 13.24027 12.032798 12.519141 21.60034 12.678461 16.75368 0.268327 33.532515-0.067082 50.29458 0.159319 15.596519 0.209631 33.683449-0.402491 33.247417 21.583569-0.38572 19.336329-17.030392 18.782904-31.201422 19.017691-9.777172 0.159319-19.571115 0.335409-29.339903-0.033541-25.591707-0.972686-51.535593-5.400085-46.730859 36.073238 2.683272 23.28577-21.348783 22.078298-36.207402 26.690172-51.443356 15.948698-74.729126 70.134023-46.127124 114.349315 15.63006 24.174604 17.114244 41.951281-7.135826 60.658718-15.344962 11.831553-29.968795 25.751026-41.372701 41.347545-24.174604 33.062943-48.449831 33.89308-80.649095 10.120967-27.998267-20.66958-90.082473 5.785805-99.717097 40.316162-7.571858 27.126203-10.97626 56.348713-51.451741 49.992712-12.997099-2.03761-15.244339 9.005732-15.177257 19.73882 0.109008 16.77045 0.209631 33.5409-0.067082 50.29458-0.251557 14.967627 3.320549 34.622594-18.883527 35.117323-25.063438 0.54504-21.097226-20.644424-21.625496-36.970458-0.226401-6.976507-0.436032-13.994941 0.033541-20.946292 1.903446-27.906029 3.664343-53.791219-38.454642-49.212886-18.237865 1.987298-18.363643-17.206482-22.111839-30.304204-16.720139-58.411478-67.61007-80.724562-118.214903-50.135261-22.992287 13.885933-40.358088 14.690914-57.807742-7.63894-10.221589-13.097722-21.994445-25.818108-35.419191-35.41919-37.867677-27.050736-43.309688-55.090929-13.332508-93.327556 18.128857-23.126451-11.689004-85.042953-42.345387-93.771972-28.191127-8.02466-58.990059-10.330597-52.634058-53.673826 2.322707-15.873231-14.825078-12.334666-25.281453-13.189959-27.419686-2.255626-55.921066 6.104444-82.074584-8.469077v-25.155676c26.656631-11.135579 54.738749-5.735494 82.242288-7.211293 10.263516-0.54504 27.327449 3.119304 24.962815-13.131263-6.406312-43.745719 26.161902-44.450078 53.162328-53.195868 30.388056-9.835869 59.962745-71.299569 42.035133-93.922906-30.329359-38.261782-23.914662-66.13427 13.374434-93.335941 14.405817-10.515072 26.371533-24.736414 38.169545-38.37079 15.780994-18.212709 31.402668-17.265178 51.460126-6.112829 58.017372 32.232805 102.249435 13.039025 122.390746-52.776607 5.492322-17.961152 12.11665-31.167882 33.591212-28.30852 24.291997 3.228312 26.757253-10.967874 26.556007-30.279048-0.285098-26.153517-4.293235-52.835303 6.733336-78.049675h25.14729zM801.292111 802.684058c13.013869-15.999009 29.60823-34.781914 44.282374-54.998691 11.53807-15.890002-7.63894-24.115907-12.108266-36.022927-4.276465-11.395521-18.279791-22.120224-11.227816-34.186563 24.266841-41.523635 18.42234-106.442047 86.778695-114.567331 19.00092-2.264011 21.843511-16.082862 19.135083-30.73185-3.756581-20.342556 14.204571-55.191552-13.458286-58.704961-58.780428-7.471236-63.107204-54.646512-83.013728-92.304558-11.571611-21.885438-14.925701-41.859044 3.37086-61.195372 21.591955-22.824583 9.743632-39.209313-9.760402-54.696824-17.717981-14.045252-27.444842-42.404083-60.70903-18.497806-38.605576 27.74671-134.649945-11.034956-145.735212-57.807742-7.362228-31.016948-24.870578-34.496816-50.889931-32.878468-23.394778 1.450644-44.751946-3.840433-52.030322 31.251734-10.263516 49.565066-106.257572 87.072177-148.477181 58.168307-31.738077-21.726118-41.464938 3.580491-57.145309 18.120471-15.6636 14.52321-33.901465 25.742641-14.020096 54.302718 28.811633 41.406242-10.23836 136.444383-59.224845 148.527492-22.832968 5.634871-34.765143 12.594608-30.681539 38.228241 3.941056 24.669332-12.628149 54.646512 31.561988 63.610318 49.791467 10.087426 86.174958 105.586754 57.589726 148.368173-19.36987 29.004494 1.249399 39.645344 16.393115 54.009235 14.707685 13.944629 24.048826 37.456801 54.03439 17.818603 46.680548-30.572531 135.907728 7.865341 152.678179 62.704714 3.203156 10.481531 3.010296 21.466176 16.661442 26.212213 36.467344 12.686846 72.029084-4.008138 84.481143-41.800347 3.144459-9.567542 5.249151-21.399094 14.741226-23.914662 47.200432-12.4856 89.612901-66.771547 144.469043-17.835374 2.867747 2.565879 7.571858 3.119304 22.304699 8.821257z" fill="#C1C5CF" p-id="6346"></path><path d="M1031.265294 8.385225c47.779013 42.747878 55.770132 83.978029 22.237617 115.690951-10.263516 9.701705-23.210303 22.002831-36.098394 18.26302-48.41629-14.062022-69.144566 22.598182-96.262384 48.307282-7.07713 6.70818-14.036867 13.525368-21.256545 20.082614-9.726861 8.829642-19.311173 9.88618-29.04642-0.486343-8.703864-9.265674-6.079288-17.776677 1.333251-25.658789 13.332508-14.204571 27.075892-28.015037 40.651571-41.984822 17.835374-18.380413 37.029154-33.004246 27.721554-66.369057-8.5697-30.706694 23.889506-46.688933 40.4084-67.836471l50.31135-0.008385z m3.563721 67.727463c-2.582649-14.925701-10.481531-25.985813-26.547623-26.25414-17.994693-0.310253-28.48461 10.338983-27.729939 28.451069 0.679203 16.38473 11.831553 24.803496 27.537079 24.283612 15.780994-0.519884 24.60225-10.355753 26.740483-26.480541z" fill="#C1C5CF" p-id="6347"></path><path d="M58.696576 930.642593c25.952272-24.60225 49.657303-54.101472 92.665122-37.490341 11.772856 4.544792 16.77045-7.580243 23.411549-13.793696 18.304946-17.063933 35.729444-35.067011 53.967309-52.206411 9.089584-8.55293 18.992535-18.514577 32.132182-6.003821 14.950856 14.238112 4.10876 24.744799-5.827731 34.999929-9.684935 9.978418-19.311173 20.049073-29.507607 29.482452-21.357168 19.763976-40.299392 37.767054-32.76946 73.278482 5.609716 26.497311-14.238112 48.04734-38.504954 58.587568-23.964973 10.406064-49.238042 9.173436-70.184334-9.861025-9.064428-8.225906-16.954925-17.759907-25.373691-26.698557L58.696576 930.642593z m65.807246-1.081694c-12.737157 2.222085-23.721802 9.274059-24.476472 25.834879s8.74579 26.329607 24.593865 27.302293c17.860529 1.10685 29.599845-8.76256 29.247666-26.874647-0.310253-15.64683-10.892407-24.535169-29.365059-26.262525zM150.925667 8.385225c28.845174 23.763728 53.766063 49.095493 39.519566 91.608584-4.746037 14.162645 8.678708 19.319559 15.579748 26.883032 17.818603 19.495648 36.936917 37.79221 55.208322 56.902138 9.165051 9.575927 9.69332 19.763976-0.922375 28.878715-8.972191 7.697637-17.952767 6.179911-26.019353-1.576422a3242.281449 3242.281449 0 0 1-38.706199-37.993455c-19.378255-19.252477-35.905534-38.54688-70.259802-30.622843-30.899555 7.144212-47.820939-22.053142-66.628998-41.850658v-41.926126C71.450503 37.909603 88.346732 21.264931 108.999541 8.385225h41.926126z m3.530179 68.792387c-2.272396-16.091247-10.41445-26.941728-26.430229-27.277137-17.952767-0.36895-28.576847 10.129352-27.872488 28.316905 0.645662 16.460197 11.881864 24.803496 27.528694 24.375849 15.764223-0.436032 24.593865-10.338983 26.774023-25.415617z" fill="#C1C5CF" p-id="6348"></path><path d="M108.999541 8.385225C88.346732 21.264931 71.450503 37.909603 58.696576 58.68819 49.229657 15.688756 66.000107-1.081694 108.999541 8.385225z" fill="#C1C5CF" p-id="6349"></path><path d="M939.648325 947.723297c14.875389-19.445337-1.869905-31.830314-15.546207-46.051657-9.928107-10.322212-26.119976-21.181079-8.175595-37.557423 15.118561-13.802081 26.195443-1.467414 34.781914 8.812872 14.950856 17.885685 31.318816 19.713664 54.118243 16.980081 37.968299-4.544792 68.339585 28.199512 68.180265 66.880555-0.17609 39.65373-29.04642 67.157268-69.152951 65.865943-38.136004-1.224243-67.056645-33.356425-64.205669-74.930371z m40.450326 12.250814c2.624575 14.254883 11.932175 23.487016 27.805406 22.91682 15.6636-0.54504 26.539237-9.995188 26.187058-25.927116-0.38572-17.68444-11.697389-28.040193-29.717237-26.547623-15.923542 1.324866-23.780498 12.032798-24.275227 29.557919z" fill="#C1C5CF" p-id="6350"></path><path d="M884.90119 854.773076c-11.571611-2.79228-21.097226-8.729019-19.763975-21.952519 1.048153-10.464761 9.433378-18.279791 19.713664-17.927611 12.091495 0.419261 20.778588 8.603241 19.789131 21.700962-0.821752 10.875637-9.047658 16.309263-19.73882 18.179168z" fill="#C1C5CF" p-id="6351"></path><path d="M1034.829015 76.112688c-2.138232 16.116403-10.967874 25.960657-26.732098 26.480541-15.705527 0.528269-26.857876-7.898882-27.537079-24.283612-0.763055-18.103701 9.735246-28.752937 27.72994-28.451069 16.057706 0.276712 23.964973 11.328439 26.539237 26.25414z" fill="#C1C5CF" p-id="6352"></path><path d="M124.503822 929.560899c18.472651 1.727356 29.054805 10.615695 29.365059 26.262525 0.352179 18.112086-11.37875 27.981496-29.247666 26.874647-15.848075-0.972686-25.348535-10.741473-24.593865-27.302293s11.739315-23.612794 24.476472-25.834879z" fill="#C1C5CF" p-id="6353"></path><path d="M154.455846 77.177612c-2.180159 15.076635-11.009801 24.979586-26.774023 25.415617-15.64683 0.436032-26.883032-7.907267-27.528694-24.375849-0.704359-18.187553 9.919721-28.685855 27.872488-28.316905 16.01578 0.335409 24.149448 11.18589 26.430229 27.277137zM980.098651 959.974111c0.503114-17.533506 8.351684-28.233053 24.283612-29.549534 18.019849-1.49257 29.331517 8.863183 29.717238 26.547623 0.352179 15.923542-10.523458 25.373691-26.187058 25.927116-15.881616 0.56181-25.197601-8.661938-27.813792-22.925205z" fill="#C1C5CF" p-id="6354"></path><path d="M820.343342 516.823349C819.907311 654.684835 704.945874 769.092846 566.732209 769.193469c-138.364599 0.109008-256.034463-118.290371-255.145629-256.730437 0.880449-138.18851 119.112123-252.93193 259.46402-251.82508 137.408684 1.090079 249.737159 116.512703 249.292742 256.185397z m-39.343476-1.50934c0.301868-117.208676-94.652421-213.697462-211.265746-214.695304-118.592239-1.006227-217.085093 95.608337-217.504354 213.345282-0.402491 114.978207 97.100907 214.058026 211.903023 215.349352 117.661479 1.308095 216.565209-96.28754 216.867077-213.99933z" fill="#C1C5CF" p-id="6355"></path><path d="M539.413146 564.401116c1.324866 11.496144-0.444417 17.902456-7.890497 20.937907-8.058201 3.295393-12.510756-2.42333-17.307105-7.647325-31.436209-34.245259-45.028659-34.027243-80.65748 1.677045-5.458782 5.467167-11.7477 9.198592-18.195939 5.333003-6.196681-3.706269-7.99112-11.403906-5.073061-18.522962 15.252724-37.180088 29.465681-74.86329 46.814712-111.045536 7.471236-15.588133 25.683944-16.493738 33.448663-1.190702 18.757749 37.003998 33.834383 75.877902 48.860707 110.45857z m-86.03241-31.427823c13.500212 5.114987 33.306114 8.234291 35.880378 0.846907 6.641098-19.093158-6.196681-37.05431-16.57759-59.468016l-19.302788 58.621109z" fill="#C1C5CF" p-id="6356"></path><path d="M607.400551 443.427474c12.368207 1.115235 25.432388 0.050311 36.920146 3.823663 19.36987 6.372771 27.964726 22.237617 26.203828 42.370542-2.414945 27.76348-22.774271 38.286938-46.101967 37.775439-26.094821-0.578581-39.066764 5.416855-35.117323 34.044014 1.467414 10.657621 0.142549 25.189216-15.051479 24.325538-15.118561-0.863678-12.921632-15.45397-13.080951-26.170288-0.335409-23.579253 1.936987-47.368137-0.595351-70.670677-4.041678-37.079465 9.466919-52.441198 46.823097-45.498231z m-17.575432 45.213134c-3.773351 15.688756 2.389789 24.401005 21.650651 23.101295 15.881616-1.064924 27.495153-6.465009 28.224668-23.839195 0.821752-19.327944-10.263516-26.237369-28.752937-27.268752-20.535416-1.132005-23.252229 9.928107-21.122382 28.006652z" fill="#C1C5CF" p-id="6357"></path><path d="M724.391211 518.089518c-0.01677 16.678213 0.452802 33.364811-0.20963 50.026253-0.327024 8.158824-1.928602 17.533506-12.997099 17.68444-10.188048 0.142549-14.757996-7.219679-14.841849-16.36796-0.318639-36.131935-0.394106-72.26387 0.083853-108.387419 0.125778-9.089584 5.341388-16.225411 15.512666-15.487511 10.892407 0.796596 12.057954 10.188048 12.301125 18.338487 0.54504 18.061775 0.167705 36.131935 0.150934 54.19371z" fill="#C1C5CF" p-id="6358"></path><path d="M453.380736 532.973293l19.302788-58.621109c10.380909 22.405321 23.218688 40.366474 16.57759 59.468016-2.574264 7.387383-22.380166 4.26808-35.880378-0.846907z" fill="#C1C5CF" p-id="6359"></path><path d="M589.825119 488.640608c-2.129847-18.078545 0.586966-29.147042 21.130767-28.006652 18.489421 1.031383 29.566304 7.940808 28.752937 27.268752-0.729515 17.365801-12.351437 22.774271-28.224668 23.839195-19.269247 1.308095-25.432388-7.404154-21.659036-23.101295z" fill="#C1C5CF" p-id="6360"></path></svg>