<?xml version="1.0" standalone="no"?><!DOCTYPE svg PUBLIC "-//W3C//DTD SVG 1.1//EN" "http://www.w3.org/Graphics/SVG/1.1/DTD/svg11.dtd"><svg t="1592988472793" class="icon" viewBox="0 0 1024 1024" version="1.1" xmlns="http://www.w3.org/2000/svg" p-id="4344" xmlns:xlink="http://www.w3.org/1999/xlink" width="48" height="48"><defs><style type="text/css"></style></defs><path d="M 150.734 888.525 h 722.531 v 107.59 H 150.734 Z M 483.658 27.885 h 56.684 v 123.866 h -56.684 Z M 752.189 216.094 l -50.514 -25.695 l 56.094 -110.427 l 50.586 25.683 Z M 911.939 369.413 l -33.449 -45.799 l 100.11 -73.02 l 33.4 45.788 Z M 271.811 216.094 l 50.514 -25.695 l -56.094 -110.427 l -50.586 25.683 Z M 112.062 369.413 l 33.448 -45.799 l -100.062 -73.02 L 12 296.382 Z M 803.084 514.742 c 0 -160.765 -130.343 -291.119 -291.084 -291.119 c -160.789 0 -291.107 130.354 -291.107 291.119 c 0 6.418 0.544 12.705 0.945 19.029 c -0.307 3.18 -0.945 6.229 -0.945 9.502 v 292.113 h 582.191 V 543.273 c 0 -3.273 -0.615 -6.322 -0.922 -9.502 c 0.402 -6.324 0.922 -12.611 0.922 -19.029 Z m -131.549 -38.223 c 0 -99.86 -105.238 -119.858 -109.752 -120.662 l 8.226 -45.847 c 51.2 9.171 148.071 55.787 148.071 166.509 h -46.545 Z" fill="#ffffff" p-id="4345"></path></svg>