<?xml version="1.0" standalone="no"?><!DOCTYPE svg PUBLIC "-//W3C//DTD SVG 1.1//EN" "http://www.w3.org/Graphics/SVG/1.1/DTD/svg11.dtd"><svg t="1592907042691" class="icon" viewBox="0 0 1024 1024" version="1.1" xmlns="http://www.w3.org/2000/svg" p-id="7179" xmlns:xlink="http://www.w3.org/1999/xlink" width="48" height="48"><defs><style type="text/css"></style></defs><path d="M583.608392 800.991009v-82.861139h283.364635c11.252747 0 21.482517-9.206793 21.482517-21.482517 0-59.332667-42.965035-110.481518-101.274725-120.711289V376.455544c0-117.642358-74.677323-221.986014-186.181818-259.836163V21.482517c0-11.252747-9.206793-21.482517-21.482517-21.482517H444.483516c-11.252747 0-21.482517 9.206793-21.482517 21.482517v95.136864c-111.504496 37.85015-186.181818 142.193806-186.181818 259.836163v200.503497c-58.30969 10.22977-101.274725 61.378621-101.274725 120.711289 0 11.252747 9.206793 21.482517 21.482517 21.482517H440.391608v82.861139c-54.217782 38.873127-66.493506 114.573427-28.643356 169.814186 18.413586 26.597403 47.056943 45.010989 78.769231 50.125874 7.160839 1.022977 14.321678 2.045954 21.482517 2.045954 24.551449 0 49.102897-7.160839 69.562438-22.505495 26.597403-18.413586 45.010989-47.056943 50.125874-78.76923 6.137862-32.735265-1.022977-64.447552-20.459541-92.067932-6.137862-11.252747-16.367632-21.482517-27.620379-29.666334zM279.784216 574.913087V376.455544C279.784216 247.56044 384.127872 143.216783 512 143.216783s232.215784 104.343656 232.215784 232.215784v198.457543H279.784216z m278.24975-469.546454c-15.344655-3.068931-30.689311-4.091908-46.033966-4.091908s-30.689311 1.022977-46.033966 4.091908V41.942058h93.090909v63.424575zM512 820.427572c43.988012 0 80.815185 35.804196 80.815185 80.815185 0 43.988012-35.804196 80.815185-80.815185 80.815185s-80.815185-35.804196-80.815185-80.815185 36.827173-80.815185 80.815185-80.815185z m29.666334-38.873126c-10.22977-3.068931-19.436563-4.091908-29.666334-4.091909s-19.436563 1.022977-29.666334 4.091909v-62.401599h59.332668v62.401599zM180.555445 676.187812c9.206793-34.781219 40.919081-59.332667 77.746253-59.332667h507.396604c35.804196 0 68.539461 24.551449 77.746253 59.332667H180.555445zM922.213786 798.945055c0-11.252747-9.206793-21.482517-21.482517-21.482518s-21.482517 9.206793-21.482518 21.482518c0 43.988012-35.804196 80.815185-80.815185 80.815185-10.22977-1.022977-20.45954 9.206793-20.45954 20.45954s9.206793 21.482517 21.482517 21.482518c67.516484 0 122.757243-55.240759 122.757243-122.757243zM968.247752 844.979021c-11.252747 0-21.482517 9.206793-21.482517 21.482517 0 43.988012-35.804196 80.815185-80.815185 80.815185-11.252747 0-21.482517 9.206793-21.482518 21.482518s9.206793 21.482517 21.482518 21.482517c67.516484 0 122.757243-55.240759 122.757243-122.757243 1.022977-12.275724-8.183816-22.505495-20.459541-22.505494zM144.751249 224.031968c0-43.988012 35.804196-80.815185 80.815185-80.815185 10.22977 0 20.45954-9.206793 20.45954-20.45954s-10.22977-21.482517-21.482517-21.482518c-67.516484 0-122.757243 55.240759-122.757243 122.757243 0 11.252747 9.206793 21.482517 21.482517 21.482518s21.482517-10.22977 21.482518-21.482518zM178.509491 55.240759c0-11.252747-9.206793-21.482517-21.482518-21.482517-67.516484 0-122.757243 55.240759-122.757243 122.757243 0 11.252747 9.206793 21.482517 21.482518 21.482517s21.482517-9.206793 21.482517-21.482517c0-43.988012 35.804196-80.815185 80.815185-80.815185 10.22977 0 20.45954-9.206793 20.459541-20.459541z" fill="#C1C5CF" p-id="7180"></path></svg>