<?xml version="1.0" standalone="no"?><!DOCTYPE svg PUBLIC "-//W3C//DTD SVG 1.1//EN" "http://www.w3.org/Graphics/SVG/1.1/DTD/svg11.dtd"><svg t="1592988310902" class="icon" viewBox="0 0 1024 1024" version="1.1" xmlns="http://www.w3.org/2000/svg" p-id="3166" xmlns:xlink="http://www.w3.org/1999/xlink" width="48" height="48"><defs><style type="text/css"></style></defs><path d="M230.4 768h179.2v25.6H230.4V768z m384 0h179.2v25.6H614.4V768z m25.6-486.4v128h128v-128h-128z m0-25.6h128c12.8 0 25.6 12.8 25.6 25.6v128c0 12.8-12.8 25.6-25.6 25.6h-128c-12.8 0-25.6-12.8-25.6-25.6v-128c0-12.8 12.8-25.6 25.6-25.6z" p-id="3167" fill="#ffffff"></path><path d="M691.2 358.4h25.6V384h-25.6v-25.6z m0-51.2h25.6v25.6h-25.6v-25.6z m-460.8 512h179.2v25.6H230.4v-25.6z m384 0h179.2v25.6H614.4v-25.6z m-384 51.2h179.2v25.6H230.4v-25.6z m384 0h179.2v25.6H614.4v-25.6zM230.4 256H256v25.6h-25.6V256z m0 102.4H256V384h-25.6v-25.6z m51.2 0h25.6V384h-25.6v-25.6z m-51.2-51.2H256v25.6h-25.6v-25.6z m0 102.4H256v25.6h-25.6v-25.6zM332.8 256h25.6v25.6h-25.6V256z m-51.2 0h25.6v25.6h-25.6V256z m51.2 102.4h25.6V384h-25.6v-25.6z m0-51.2h25.6v25.6h-25.6v-25.6z m-51.2 0h25.6v25.6h-25.6v-25.6z m51.2 102.4h25.6v25.6h-25.6v-25.6z m-51.2 0h25.6v25.6h-25.6v-25.6zM384 256h25.6v25.6H384V256z m0 51.2h25.6v25.6H384v-25.6z m0 102.4h25.6v25.6H384v-25.6z m0-51.2h25.6V384H384v-25.6z" p-id="3168" fill="#ffffff"></path><path d="M153.6 128c-12.8 0-25.6 12.8-25.6 25.6v819.2c0 12.8 12.8 25.6 25.6 25.6h716.8c12.8 0 25.6-12.8 25.6-25.6V153.6c0-12.8-12.8-25.6-25.6-25.6H153.6z m0-25.6h716.8c25.6 0 51.2 25.6 51.2 51.2v819.2c0 25.6-25.6 51.2-51.2 51.2H153.6c-25.6 0-51.2-25.6-51.2-51.2V153.6c0-25.6 25.6-51.2 51.2-51.2z" p-id="3169" fill="#ffffff"></path><path d="M140.8 128L211.2 32c6.4-6.4 12.8-6.4 19.2-6.4h563.2c6.4 0 12.8 6.4 19.2 12.8L883.2 128h32L832 19.2c-6.4-12.8-25.6-19.2-38.4-19.2H230.4c-19.2 0-32 6.4-44.8 19.2L108.8 128h32z m0 0L211.2 32c6.4-6.4 12.8-6.4 19.2-6.4h563.2c6.4 0 12.8 6.4 19.2 12.8L883.2 128h32L832 19.2c-6.4-12.8-25.6-19.2-38.4-19.2H230.4c-19.2 0-32 6.4-44.8 19.2L108.8 128h32z" p-id="3170" fill="#ffffff"></path><path d="M486.4 25.6H512V1024h-25.6V25.6z" p-id="3171" fill="#ffffff"></path></svg>