<?xml version="1.0" standalone="no"?><!DOCTYPE svg PUBLIC "-//W3C//DTD SVG 1.1//EN" "http://www.w3.org/Graphics/SVG/1.1/DTD/svg11.dtd"><svg t="1592988209455" class="icon" viewBox="0 0 1024 1024" version="1.1" xmlns="http://www.w3.org/2000/svg" p-id="2794" xmlns:xlink="http://www.w3.org/1999/xlink" width="48" height="48"><defs><style type="text/css"></style></defs><path d="M865.3568 243.6352l-307.2-179.712a91.84768 91.84768 0 0 0-92.74368 0l-306.97984 179.712a92.672 92.672 0 0 0-45.75744 80.01536v381.39904a92.64128 92.64128 0 0 0 46.7712 80.5632l307.10272 174.47936a91.72992 91.72992 0 0 0 90.69056 0l307.0976-174.47936a92.6208 92.6208 0 0 0 46.80192-80.5632V323.65056a92.672 92.672 0 0 0-45.78304-80.01536zM433.664 681.472a30.72 30.72 0 0 1-41.88672 11.47904l-153.02656-87.04a30.72 30.72 0 1 1 30.40256-53.34528l153.02656 87.04A30.68928 30.68928 0 0 1 433.664 681.472z m109.63968-159.49824v296.65792a30.72 30.72 0 0 1-61.44 0v-295.424l-243.12832-138.24a30.72 30.72 0 1 1 30.40256-53.34528l239.70304 136.30464L748.544 331.56608a30.72 30.72 0 1 1 30.34112 53.37088l-236.16 134.30272c0.11264 0.95232 0.57856 1.78688 0.57856 2.73408z m260.35712 118.37952c0 20.00896-16.06656 45.696-35.84 57.344l-143.32416 84.52608c-19.80928 11.66336-35.84 4.90496-35.84-15.09888v-169.18528c0-20.01408 16.06144-45.70112 35.84-57.344l143.32416-84.52608c19.80928-11.65824 35.84-4.90496 35.84 15.104v169.20064z" p-id="2795" fill="#ffffff"></path></svg>