<?xml version="1.0" standalone="no"?><!DOCTYPE svg PUBLIC "-//W3C//DTD SVG 1.1//EN" "http://www.w3.org/Graphics/SVG/1.1/DTD/svg11.dtd"><svg t="1593324801807" class="icon" viewBox="0 0 1024 1024" version="1.1" xmlns="http://www.w3.org/2000/svg" p-id="31149" xmlns:xlink="http://www.w3.org/1999/xlink" width="48" height="48"><defs><style type="text/css"></style></defs><path d="M0 512a512 512 0 1 0 1024 0A512 512 0 1 0 0 512z" fill="#ffffff" p-id="31150" data-spm-anchor-id="a313x.7781069.0.i24" class="selected"></path><path d="M598.187 632.616l-20.958-9.66v-66.64H442.652v66.64l-21.026 9.08 5.587 189.007h15.44v28.98h134.576v-28.98h15.348z" fill="#F7CDB9" p-id="31151"></path><path d="M577.195 563.075v54.238l-134.543-28.274v-25.964z" fill="#F7CDB9" p-id="31152"></path><path d="M656.725 366.57l4.574-59.21c0-77.404-74.012-140.14-151.393-140.14-77.425 0-151.358 62.736-151.358 140.14l4.54 59.141a27.534 27.534 0 0 0-11.492 5.848 27.841 27.841 0 0 0-9.876 21.368v29.138a27.99 27.99 0 0 0 27.864 28.012c0 73.114 87.86 142.404 140.322 142.404 52.498 0 140.334-69.279 140.334-142.404a27.99 27.99 0 0 0 27.83-27.978v-29.172a27.978 27.978 0 0 0-21.345-27.148z" fill="#F7CDB9" p-id="31153"></path><path d="M656.725 366.57l4.574-59.21c0-77.404-74.012-140.14-151.393-140.14v210.238c-20.468 43.486-33.655 106.507-33.655 106.507h33.655v109.306c52.532 0 140.334-69.29 140.334-142.404a27.99 27.99 0 0 0 27.83-27.978v-29.172a27.978 27.978 0 0 0-21.345-27.148z" fill="#F9DBCF" p-id="31154"></path><path d="M423.277 394.377a22.141 22.141 0 1 0 44.281 0 22.141 22.141 0 1 0-44.282 0z" fill="#F7CDB9" p-id="31155"></path><path d="M423.277 388.779a22.141 22.141 0 1 0 44.281 0 22.141 22.141 0 1 0-44.282 0z" fill="#3C2417" p-id="31156"></path><path d="M447.397 393.08a5.53 5.53 0 1 0 11.06 0 5.53 5.53 0 1 0-11.06 0z" fill="#FFFFFF" p-id="31157"></path><path d="M552.22 394.377a22.141 22.141 0 1 0 44.283 0 22.141 22.141 0 1 0-44.283 0z" fill="#F7CDB9" p-id="31158"></path><path d="M552.22 388.779a22.141 22.141 0 1 0 44.283 0 22.141 22.141 0 1 0-44.283 0z" fill="#3C2417" p-id="31159"></path><path d="M576.342 393.08a5.541 5.541 0 1 0 11.081 0 5.541 5.541 0 1 0-11.082 0z" fill="#FFFFFF" p-id="31160"></path><path d="M659.137 216.064c1.57-18.74-4.437-45.375-19.183-83.433-3.481-9-15.2-10.547-21.22-3.015-17.077 21.413-39.65 17.135-76.8 1.99-62.099-25.27-107.667-9.83-133.916 17.648-112.617 57.48-43.815 258.958-43.815 258.958s2.355-104.915 41.04-153.088c21.185 4.881 80.816 13.039 104.675 13.039 23.87 0 86.323-7.84 107.998-13.04 28.638 30.573 37.774 153.089 37.774 153.089s44.305-111.684 3.447-192.148z" fill="#4F3C30" p-id="31161"></path><path d="M776.863 706.31l1.775 1.74c-0.569-0.591-1.183-1.16-1.775-1.74z m-36.01 165.216a550.98 550.98 0 0 1-32.029-28.125l66.367-138.582c-29.912-27.716-80.214-41.938-145.92-63.602l2.491 1.104-80.497 82.66-11.56-12.175-10.354 19.81h-39.31l-10.024-19.764-11.526 12.129-80.475-82.66 2.412-1.07c-73.034 24.065-127.09 38.89-155.17 73.41 4.722-4.71 9.432-9.478 14.211-13.983l67.584 141.118a549.353 549.353 0 0 1-36.09 31.414l0.262 0.205s0.318 17.192 0.933 44.476a463.679 463.679 0 0 0 200.658 59.608l7.236-238.945h39.31l7.43 239.275a463.622 463.622 0 0 0 200.818-57.515c0.648-28.683 0.99-46.899 0.99-46.899s0.819-0.66 2.253-1.889z" fill="#FFFFFF" p-id="31162"></path><path d="M509.906 719.69a90.283 90.283 0 0 0 29.116-7.612l-29.116-30.663-29.127 30.652a90.055 90.055 0 0 0 29.127 7.623z" fill="#F05D44" p-id="31163"></path><path d="M509.906 719.69a90.055 90.055 0 0 1-29.127-7.623l-0.75 0.785 10.023 19.763h39.31l10.354-19.809-0.694-0.728a90.203 90.203 0 0 1-29.116 7.612z" fill="#F05D44" p-id="31164"></path><path d="M427.213 628.77c0.068 0.148 0.068 0.387 0.114 0.558 5.188 29.343 18.045 65.49 51.905 81.942l-1.707-3.367 32.381-26.488-51.382-47.457-16.588-15.382-51.496 22.664a1909.749 1909.749 0 0 0 36.773-12.47z" fill="#E6E7E8" p-id="31165"></path><path d="M468.514 724.98l11.526-12.128-0.808-1.582c-33.86-16.463-46.717-52.6-51.905-81.942-0.046-0.16-0.046-0.41-0.114-0.558a1371.25 1371.25 0 0 1-10.707 3.732c-8.965 3.083-17.601 5.95-26.066 8.75l-2.412 1.07 80.486 82.659zM479.232 711.27c0.523 0.262 1.013 0.558 1.547 0.797l29.127-30.652-32.38 26.488 1.706 3.367z" fill="#E6E7E8" p-id="31166"></path><path d="M479.232 711.27l0.808 1.582 0.75-0.785c-0.545-0.25-1.035-0.546-1.558-0.797z m61.258 0.057c33.951-16.43 46.82-52.622 52.02-82 0.067-0.159 0.067-0.409 0.113-0.557a1998.86 1998.86 0 0 0 36.648 12.436l-51.394-22.63-16.623 15.382-51.359 47.457 32.37 26.488-1.775 3.424z" fill="#E6E7E8" p-id="31167"></path><path d="M592.623 628.77c-0.046 0.148-0.046 0.387-0.114 0.558-5.188 29.377-18.068 65.57-52.019 82l-0.774 1.478 11.56 12.175 80.498-82.66a150.87 150.87 0 0 0-2.492-1.104c-8.43-2.776-17.021-5.632-25.941-8.704-3.539-1.228-7.123-2.469-10.718-3.743z m-52.133 82.557l1.786-3.424-32.37-26.488 29.116 30.663c0.512-0.227 0.967-0.512 1.468-0.75z" fill="#E6E7E8" p-id="31168"></path><path d="M539.022 712.078l0.694 0.728 0.774-1.479c-0.5 0.24-0.956 0.524-1.468 0.751z" fill="#E6E7E8" p-id="31169"></path><path d="M490.064 738.543l-7.237 238.945c9.649 0.591 19.365 1 29.173 1 8.317 0 16.589-0.238 24.792-0.67l-7.43-239.275h-39.298z" fill="#F05D44" p-id="31170"></path><path d="M249.515 897.638c10.183-8.203 19.91-15.257 31.448-24.44-5.211-4.266-87.53-73.147-57.606-139.49a88.713 88.713 0 0 1 11.913-19.058 734.902 734.902 0 0 0-81.238 96.38 468.958 468.958 0 0 0 95.483 86.608z" fill="#FFFFFF" p-id="31171"></path><path d="M249.48 700.678c-4.778 4.505-9.489 9.273-14.21 13.983a88.872 88.872 0 0 0-11.913 19.058c-29.912 66.344 52.406 135.225 57.606 139.491a545.929 545.929 0 0 0 36.09-31.414l-67.572-141.118z m525.756 4.039l-0.045 0.09c0.546 0.513 1.138 0.99 1.672 1.503-0.546-0.512-1.08-1.07-1.627-1.593z m3.402 3.333a89.338 89.338 0 0 1 17.83 25.669c27.954 61.963-42.019 126.134-55.615 137.807 12.743 10.309 22.914 17.545 33.61 26.124a468.89 468.89 0 0 0 95.05-86.096c-27.5-38.093-58.482-72.613-90.875-103.504z" fill="#FFFFFF" p-id="31172"></path><path d="M740.853 871.526c13.607-11.685 83.57-75.855 55.614-137.807a89.566 89.566 0 0 0-17.829-25.669l-1.775-1.74c-0.534-0.512-1.126-0.99-1.672-1.502l-66.355 138.581a544.04 544.04 0 0 0 32.017 28.137z" fill="#FFFFFF" p-id="31173"></path></svg>