<?xml version="1.0" standalone="no"?><!DOCTYPE svg PUBLIC "-//W3C//DTD SVG 1.1//EN" "http://www.w3.org/Graphics/SVG/1.1/DTD/svg11.dtd"><svg t="1593323937704" class="icon" viewBox="0 0 1024 1024" version="1.1" xmlns="http://www.w3.org/2000/svg" p-id="30183" xmlns:xlink="http://www.w3.org/1999/xlink" width="48" height="48"><defs><style type="text/css"></style></defs><path d="M439.637333 821.458051h118.626462V686.867692h-118.626462z" fill="#FFDEC3" p-id="30184"></path><path d="M439.637333 702.726564s49.965949 32.242872 118.626462 24.549744v-40.434872h-118.626462v15.885128z m-113.611487-225.174974c0 36.837744-25.731282 67.032615-58.052923 67.032615-31.796513 0-57.554051-29.669744-57.554051-67.032615 0-36.837744 25.731282-67.032615 58.052923-67.032616 31.822769 0.525128 57.554051 30.194872 57.554051 67.032616z m461.45641 0c0 36.837744-25.731282 67.032615-58.052923 67.032615-32.295385 0-58.052923-30.194872-58.052923-67.032615s25.731282-67.032615 58.052923-67.032616c32.295385 0 58.052923 30.194872 58.052923 67.032616z" fill="#FFD0A7" p-id="30185"></path><path d="M729.429333 349.630359c0-98.776615-71.181128-170.929231-230.216205-170.929231s-230.242462 72.152615-230.242461 170.929231c0 98.750359-16.646564 358.715077 230.242461 358.715077s230.216205-259.938462 230.216205-358.715077z" fill="#FFDEC3" p-id="30186"></path><path d="M411.858051 461.692718c0 15.36-11.106462 27.621744-24.733538 27.621744-13.653333 0-24.733538-12.261744-24.733539-27.621744s11.106462-27.621744 24.733539-27.621744c13.128205 0 24.733538 12.261744 24.733538 27.621744z" fill="#3B2519" p-id="30187"></path><path d="M383.081026 449.404718a7.82441 7.82441 0 0 1-7.561847 7.693128 7.82441 7.82441 0 0 1-7.588102-7.693128c0-4.096 3.544615-7.666872 7.588102-7.666872 4.542359 0 7.561846 3.570872 7.561847 7.666872z" fill="#FFFFFF" p-id="30188"></path><path d="M346.742154 393.110974c11.605333 6.144 30.798769-20.48 74.200615 2.573129 8.086974 4.096 12.629333-35.84-33.818256-35.84-40.382359 0-47.47159 29.669744-40.382359 33.266871z" fill="#51362A" p-id="30189"></path><path d="M639.054769 461.692718c0 15.36-11.106462 27.621744-24.733538 27.621744-13.653333 0-24.733538-12.261744-24.733539-27.621744s11.106462-27.621744 24.733539-27.621744c13.627077 0 24.733538 12.261744 24.733538 27.621744z" fill="#3B2519" p-id="30190"></path><path d="M610.776615 449.404718a7.82441 7.82441 0 0 1-7.561846 7.693128 7.82441 7.82441 0 0 1-7.588102-7.693128c0-4.096 3.544615-7.666872 7.588102-7.666872 4.043487 0 7.561846 3.570872 7.561846 7.666872z" fill="#FFFFFF" p-id="30191"></path><path d="M651.158974 393.110974c-11.605333 6.144-30.772513-20.48-74.200615 2.573129-8.086974 4.096-12.603077-35.84 33.818256-35.84 40.408615 0 47.47159 29.669744 40.408616 33.266871z" fill="#51362A" p-id="30192"></path><path d="M498.688 558.920205c-24.733538 0-39.384615-18.432-39.384615-9.714872 0 9.189744 7.089231 26.098872 39.384615 26.098872 32.321641 0 39.384615-17.408 39.384615-26.098872 0.525128-8.717128-14.624821 9.714872-39.384615 9.714872z m0 83.416616c-8.55959 0-13.627077-6.642872-13.627077-3.570872 0 3.072 2.520615 9.189744 13.653333 9.189743 11.080205 0 13.627077-6.144 13.627077-9.189743 0-3.072-5.067487 3.570872-13.653333 3.570872z" fill="#FCBC85" p-id="30193"></path><path d="M498.688 619.309949c-38.859487 0-62.595282-15.858872-62.595282-12.288 0 4.096 11.106462 19.954872 62.595282 19.954872 51.515077 0 62.621538-15.858872 62.621538-19.954872 0-4.096-23.236923 12.288-62.621538 12.288z" fill="#F8945E" p-id="30194"></path><path d="M498.688 741.113436V1010.871795c-79.163077-2.756923-136.717128-11.526564-172.662154-26.25641-25.206154-10.345026-73.675487-11.421538-115.606974-52.512821-3.229538-3.150769-3.229538-16.331487 0-39.515897 0-61.44 151.972103-151.499487 288.295384-151.499488z m0 0V1024c64.380718-17.513026 111.143385-26.25641 140.366769-26.25641 34.842256 0 84.151795-35.052308 147.928616-105.156923 0.525128-61.44-151.473231-151.499487-288.295385-151.499488z" fill="#5F98FF" p-id="30195"></path><path d="M498.688 741.113436c-29.275897 0-58.551795 4.069744-87.827692 11.237743 0 0 31.796513 41.984 87.827692 41.984 51.515077 0 85.858462-35.84 90.899692-40.96a344.142769 344.142769 0 0 0-90.899692-12.261743z" fill="#A1C2FF" p-id="30196"></path><path d="M439.637333 746.207179s17.145436 22.029128 59.575795 22.029129c41.905231 0 59.575795-22.029128 59.575795-22.029129s-62.122667-22.501744-119.177846 0z" fill="#FFDEC3" p-id="30197"></path><path d="M688.022974 157.722256s-85.333333-110.014359-263.036718-68.581743c-177.703385 41.458872-190.83159 149.924103-185.291487 255.369846 5.041231 105.419487 19.167179 167.332103 36.338872 159.638974 16.672821-7.666872 8.086974-77.246359 10.108718-93.131487 2.021744-15.858872 17.670564-88.510359 125.715692-77.771487 108.045128 10.765128 198.918564-29.170872 198.918564-29.170872s36.864 47.077744 60.599795 55.768616c47.944205 17.933128 32.295385 137.662359 51.488821 137.662359 18.668308 0.525128 111.589744-276.322462-34.842257-339.784206z" fill="#51362A" p-id="30198"></path></svg>