<?xml version="1.0" standalone="no"?><!DOCTYPE svg PUBLIC "-//W3C//DTD SVG 1.1//EN" "http://www.w3.org/Graphics/SVG/1.1/DTD/svg11.dtd"><svg t="1593323966191" class="icon" viewBox="0 0 1024 1024" version="1.1" xmlns="http://www.w3.org/2000/svg" p-id="30628" xmlns:xlink="http://www.w3.org/1999/xlink" width="48" height="48"><defs><style type="text/css"></style></defs><path d="M512 992.492308c-145.723077 0-279.630769-66.953846-370.215385-173.292308 11.815385-31.507692 27.569231-66.953846 51.2-86.646154 47.261538-39.384615 192.984615-102.4 192.984616-102.4l90.584615 173.292308 15.753846-43.323077-23.630769-51.2 51.2-51.2 51.2 51.2-23.630769 55.138461 11.815384 43.323077 90.584616-169.353846s141.784615 63.015385 192.984615 102.4c23.630769 15.753846 39.384615 43.323077 47.261539 70.892308-90.584615 110.276923-224.492308 181.169231-378.092308 181.169231m11.815385-838.892308c192.984615 0 192.984615 145.723077 192.984615 228.430769s-74.830769 236.307692-192.984615 240.246154c-114.215385 0-192.984615-153.6-192.984616-240.246154-3.938462-82.707692-3.938462-228.430769 192.984616-228.430769M512 0C228.430769 0 0 228.430769 0 512s228.430769 512 512 512 512-228.430769 512-512S791.630769 0 512 0" fill="#FF6A00" p-id="30629" data-spm-anchor-id="a313x.7781069.0.i15" class="selected"></path></svg>