<?xml version="1.0" standalone="no"?><!DOCTYPE svg PUBLIC "-//W3C//DTD SVG 1.1//EN" "http://www.w3.org/Graphics/SVG/1.1/DTD/svg11.dtd"><svg t="1593326862439" class="icon" viewBox="0 0 1024 1024" version="1.1" xmlns="http://www.w3.org/2000/svg" p-id="2927" xmlns:xlink="http://www.w3.org/1999/xlink" width="48" height="48"><defs><style type="text/css"></style></defs><path d="M740.352 518.3488H284.3648a32.6656 32.6656 0 0 0-32.6656 32.768v188.928a32.6656 32.6656 0 0 0 32.6656 32.6656H740.352a32.6656 32.6656 0 0 0 32.5632-32.768V551.1168a32.6656 32.6656 0 0 0-32.5632-32.768z m-345.6 144.384h-78.1312v-76.4928h78.1312z m116.224 0h-78.0288v-76.4928h78.0288z" fill="#FF6A00" p-id="2928"></path><path d="M512 0a512 512 0 1 0 512 512A512 512 0 0 0 512 0zM361.2672 287.3344a212.1728 212.1728 0 0 1 295.7312 0 19.0464 19.0464 0 0 1 5.632 13.5168 18.8416 18.8416 0 0 1-5.632 13.4144 19.456 19.456 0 0 1-27.3408 0 172.8512 172.8512 0 0 0-240.8448 0 19.7632 19.7632 0 0 1-27.5456 0 18.8416 18.8416 0 0 1-5.632-13.4144 19.0464 19.0464 0 0 1 5.632-13.5168z m77.2096 68.096a18.6368 18.6368 0 0 1-13.5168 5.8368 18.432 18.432 0 0 1-13.4144-5.8368 20.48 20.48 0 0 1 0-28.4672 137.1136 137.1136 0 0 1 200.9088 0 20.48 20.48 0 0 1 0 28.4672 18.2272 18.2272 0 0 1-13.4144 5.8368 18.7392 18.7392 0 0 1-13.5168-5.8368 100.1472 100.1472 0 0 0-147.0464 0zM573.44 387.4816a17.92 17.92 0 0 1-5.632 13.0048 19.7632 19.7632 0 0 1-27.2384 0 49.8688 49.8688 0 0 0-68.3008 0 19.7632 19.7632 0 0 1-27.2384 0 17.8176 17.8176 0 0 1 0-26.0096 89.6 89.6 0 0 1 122.88 0 17.92 17.92 0 0 1 5.5296 13.0048z m245.76 352.4608A78.9504 78.9504 0 0 1 740.2496 819.2H283.7504A78.9504 78.9504 0 0 1 204.8 739.9424V551.1168a78.5408 78.5408 0 0 1 73.1136-78.4384V228.1472a22.9376 22.9376 0 1 1 45.8752 0v244.1216h376.2176V228.1472a22.9376 22.9376 0 1 1 45.8752 0v244.5312A78.7456 78.7456 0 0 1 819.2 551.1168z" fill="#FF6A00" p-id="2929"></path></svg>