<?xml version="1.0" standalone="no"?><!DOCTYPE svg PUBLIC "-//W3C//DTD SVG 1.1//EN" "http://www.w3.org/Graphics/SVG/1.1/DTD/svg11.dtd"><svg t="1590387666565" class="icon" viewBox="0 0 1024 1024" version="1.1" xmlns="http://www.w3.org/2000/svg" p-id="4135" width="76" height="76" xmlns:xlink="http://www.w3.org/1999/xlink"><defs><style type="text/css"></style></defs><path d="M512 512m-447.939793 0a447.939793 447.939793 0 1 0 895.879586 0 447.939793 447.939793 0 1 0-895.879586 0Z" fill="#ff6a00" p-id="4136" data-spm-anchor-id="a313x.7781069.0.i6" class="selected"></path><path d="M725.493885 530.784572H540.778928c-4.575729 0-8.188147-3.732832-8.188147-8.188147v-71.766698c0-10.716839-7.826905-20.349953-18.543744-21.313264-12.28222-1.204139-22.517404 8.428975-22.517404 20.470367V522.596425c0 4.575729-3.732832 8.188147-8.188147 8.188147H298.506115c-18.182502 0-32.873001 14.690499-32.873001 32.873001v161.956726c0 18.182502 14.690499 32.873001 32.873001 32.873001h427.108184c18.182502 0 32.873001-14.690499 32.873001-32.873001V563.657573c-0.120414-18.182502-14.810913-32.873001-32.993415-32.873001zM491.409219 676.244591c-11.318909 0-20.590781-9.151458-20.590781-20.590781s9.151458-20.590781 20.590781-20.590781 20.590781 9.151458 20.590781 20.590781-9.151458 20.590781-20.590781 20.590781z m61.651929 0c-11.318909 0-20.590781-9.151458-20.590781-20.590781s9.151458-20.590781 20.590781-20.590781 20.590781 9.151458 20.590781 20.590781-9.271872 20.590781-20.590781 20.590781z m102.713076 0h-41.061148c-11.318909 0-20.590781-9.151458-20.590781-20.590781s9.151458-20.590781 20.590781-20.590781h41.061148c11.318909 0 20.590781 9.151458 20.590781 20.590781s-9.271872 20.590781-20.590781 20.590781z" fill="#FFFFFF" p-id="4137"></path><path d="M512 347.755409c-59.484478 0-109.215428 42.385701-120.775165 98.498589-2.649106 12.763876 7.104421 24.684854 20.109125 24.684854 9.753528 0 18.182502-6.863594 20.109126-16.376293 7.586077-37.44873 40.82032-65.746002 80.4365-65.746002s72.850423 28.297272 80.436501 65.746002c1.926623 9.5127 10.355597 16.376294 20.109125 16.376293 13.004704 0 22.758231-11.920978 20.109125-24.684854-11.318909-56.112888-61.049859-98.498589-120.534337-98.498589z" fill="#FFFFFF" p-id="4138"></path><path d="M328.368768 470.938852c10.476011 0 19.266228-7.947319 20.349953-18.42333 9.151458-81.881468 78.871119-145.821261 163.281279-145.82126 84.289746 0 154.009407 63.939793 163.281279 145.82126 1.204139 10.476011 9.873942 18.42333 20.349953 18.42333 12.28222 0 21.79492-10.716839 20.470367-22.999059-11.439323-102.472248-98.619003-182.306679-204.101599-182.306679S319.337723 345.587959 307.898401 447.939793c-1.324553 12.28222 8.188147 22.999059 20.470367 22.999059z" fill="#FFFFFF" p-id="4139"></path></svg>